<svg xmlns="http://www.w3.org/2000/svg" viewBox="0 14 820 254" width="820" height="254" font-family="Helvetica, Arial, sans-serif" role="img">
<title>Perennial Crop Canopy</title>
<desc>Section through a perennial fruit planting, drawn at twelve and a half SVG units to the meter. Six crop rows stand on their own trellis, each with one row of panels carried above it rather than between, high enough to clear the canopy and the machinery. The roots run deep and unbroken beneath, because the planting is never lifted between harvests, and the trellis that holds the crop was already there before the array. Sunlight falls from the upper left, so the shade bands land in the alleys rather than under the panels that cast them. Its outcomes footprint sits at the right: Agriculture nearest the rim, Water and Communities outside the ring, Ecology just inside it.</desc>
<defs>
  <!-- Shared glyphs. The module is one 3.0 m table, drawn at each figure's own
       scale via transform="... scale(k)". Post height is per instance, because
       clearance is a real design variable. Read heights against the bar scale. -->
  <g id="module">
    <line x1="-9" y1="16" x2="9" y2="8" stroke="#6b6b63" stroke-width="1.4" vector-effect="non-scaling-stroke"/>
    <polygon points="-22,9 22,-9 22,-5 -22,13" fill="#5b6b7a" stroke="#3d4a55" stroke-width="1.2" stroke-linejoin="round" vector-effect="non-scaling-stroke"/>
  </g>
  <g id="perennial">
    <line x1="0" y1="0" x2="0" y2="-17" stroke="#7a6242" stroke-width="2.6"/>
    <path d="M-4,-11 h8 M-4,-19 h8" stroke="#9a9288" stroke-width="1" fill="none"/>
    <path d="M0,-17 q-5,-7 -11,-10 M0,-17 q5,-7 11,-10" stroke="#7a6242" stroke-width="1.6" fill="none"/>
    <ellipse cx="0" cy="-27" rx="14" ry="11" fill="#4f8a2e" fill-opacity="0.92"/>
    <ellipse cx="-9" cy="-21" rx="8" ry="6.5" fill="#4f8a2e" fill-opacity="0.85"/>
    <ellipse cx="9" cy="-21" rx="8" ry="6.5" fill="#4f8a2e" fill-opacity="0.85"/>
    <circle cx="-5" cy="-25" r="1.8" fill="#b5432e"/>
    <circle cx="6.5" cy="-29" r="1.8" fill="#b5432e"/>
    <circle cx="1" cy="-19" r="1.8" fill="#b5432e"/>
    <circle cx="-9" cy="-31" r="1.8" fill="#b5432e"/>
  </g>
  <g id="roots">
    <path d="M0,0 v27 M0,8 q-9,4 -13,15 M0,8 q9,4 13,15 M0,17 q-6,3 -8,11 M0,17 q6,3 8,11"
          stroke="#a8875c" stroke-width="1.2" fill="none" opacity="0.8"/>
  </g>
  <clipPath id="soilclipP">
    <path d="M26,200 L545,200 L545,250 L26,250 Z"/>
  </clipPath>
  <clipPath id="bandclipP">
    <path d="M26,196 L545,196 L545,212 L26,212 Z"/>
  </clipPath>
</defs>

<rect y="14" width="820" height="254" rx="10" fill="#ffffff" stroke="#e6e1d6"/>

<text x="26" y="32" fill="#777" font-size="11">A2–A4 scale · S1 siting · structure-led restoration</text>

<!-- sun: fixed position and 45 degree rays in every archetype card -->
<g stroke="#c08a12" stroke-linecap="round">
  <circle cx="62" cy="60" r="8.5" fill="#c08a12" fill-opacity="0.16" stroke-width="1.4"/>
  <g stroke-width="1.6" opacity="0.85">
    <line x1="63" y1="75" x2="72" y2="84"/>
    <line x1="70" y1="68" x2="79" y2="77"/>
    <line x1="77" y1="61" x2="86" y2="70"/>
  </g>
</g>

<path d="M26,200 L545,200 L545,250 L26,250 Z" fill="#f2ece0"/>
<g clip-path="url(#soilclipP)">
  <path d="M26,200 L545,200 L545,213 L26,213 Z" fill="#e0d5bd"/>
  <!-- the roots are the point: a planting that is never lifted keeps them -->
  <use href="#roots" x="70" y="200"/>
  <use href="#roots" x="160" y="200"/>
  <use href="#roots" x="250" y="200"/>
  <use href="#roots" x="340" y="200"/>
  <use href="#roots" x="430" y="200"/>
  <use href="#roots" x="520" y="200"/>
</g>
<path d="M26,200 L545,200" fill="none" stroke="#8a7f6a" stroke-width="1.8"/>
<g fill="#3d4a55" opacity="0.2" clip-path="url(#bandclipP)">
  <path d="M111.3,200 h37.5 v7 h-37.5 z"/>
  <path d="M201.3,200 h37.5 v7 h-37.5 z"/>
  <path d="M291.3,200 h37.5 v7 h-37.5 z"/>
  <path d="M381.3,200 h37.5 v7 h-37.5 z"/>
  <path d="M471.3,200 h37.5 v7 h-37.5 z"/>
  <path d="M561.3,200 h37.5 v7 h-37.5 z"/>
</g>
<use href="#perennial" x="70" y="200"/>
<use href="#perennial" x="160" y="200"/>
<use href="#perennial" x="250" y="200"/>
<use href="#perennial" x="340" y="200"/>
<use href="#perennial" x="430" y="200"/>
<use href="#perennial" x="520" y="200"/>
<line x1="70" y1="200" x2="70" y2="140" stroke="#6b6b63" stroke-width="2"/>
<use href="#module" transform="translate(70,140) scale(0.852)"/>
<line x1="160" y1="200" x2="160" y2="140" stroke="#6b6b63" stroke-width="2"/>
<use href="#module" transform="translate(160,140) scale(0.852)"/>
<line x1="250" y1="200" x2="250" y2="140" stroke="#6b6b63" stroke-width="2"/>
<use href="#module" transform="translate(250,140) scale(0.852)"/>
<line x1="340" y1="200" x2="340" y2="140" stroke="#6b6b63" stroke-width="2"/>
<use href="#module" transform="translate(340,140) scale(0.852)"/>
<line x1="430" y1="200" x2="430" y2="140" stroke="#6b6b63" stroke-width="2"/>
<use href="#module" transform="translate(430,140) scale(0.852)"/>
<line x1="520" y1="200" x2="520" y2="140" stroke="#6b6b63" stroke-width="2"/>
<use href="#module" transform="translate(520,140) scale(0.852)"/>
<text x="205" y="112" fill="#8a7f6a" font-size="11" font-style="italic" text-anchor="middle">one panel row per crop row</text>
<text x="404" y="243" fill="#a8875c" font-size="11" font-style="italic" text-anchor="middle">roots stay down for the life of the array</text>
<g stroke="#8a7f6a" stroke-width="1.2" fill="none">
  <path d="M26,258 h100"/><path d="M26,254 v8"/><path d="M126,254 v8"/>
</g>
<text x="133" y="261.5" fill="#8a7f6a" font-size="9.5">8 m</text>
<polygon points="690,132 708,150 690,168 672,150" fill="none" stroke="#e6e1d6" stroke-width="1"/>
<polygon points="690,114 726,150 690,186 654,150" fill="none" stroke="#8a8880" stroke-width="1.4" stroke-dasharray="4 3"/>
<polygon points="690,96 744,150 690,204 636,150" fill="none" stroke="#e6e1d6" stroke-width="1"/>
<line x1="690" y1="150" x2="690" y2="96" stroke="#d8d2c4" stroke-width="1"/>
<line x1="690" y1="150" x2="744" y2="150" stroke="#d8d2c4" stroke-width="1"/>
<line x1="690" y1="150" x2="690" y2="204" stroke="#d8d2c4" stroke-width="1"/>
<line x1="690" y1="150" x2="636" y2="150" stroke="#d8d2c4" stroke-width="1"/>

<text x="690" y="85" fill="#6f4a9c" font-size="10.5" font-weight="600" text-anchor="middle">Communities</text>
<text x="752" y="150" fill="#3f8f36" font-size="10.5" font-weight="600" text-anchor="start" dominant-baseline="middle">Agriculture</text>
<text x="690" y="218" fill="#c08a12" font-size="10.5" font-weight="600" text-anchor="middle">Ecology</text>
<text x="628" y="150" fill="#2b7fb0" font-size="10.5" font-weight="600" text-anchor="end" dominant-baseline="middle">Water</text>
<polygon points="690,112 740,150 690,183 648,150" fill="#3b6ea5" fill-opacity="0.18" stroke="#3b6ea5" stroke-width="1.8"/>
<circle cx="690" cy="112" r="2.2" fill="#2c5580"/>
<circle cx="740" cy="150" r="2.2" fill="#2c5580"/>
<circle cx="690" cy="183" r="2.2" fill="#2c5580"/>
<circle cx="648" cy="150" r="2.2" fill="#2c5580"/>
<text x="690" y="234" fill="#7a7973" font-size="9.5" font-style="italic" text-anchor="middle">benefit at the rim, harm at the center</text>
<text x="690" y="246" fill="#8a8880" font-size="9" font-style="italic" text-anchor="middle">dashed ring: no harm either way</text>
</svg>
